<!-- Generated by IcoMoon.io -->
<svg version="1.1" xmlns="http://www.w3.org/2000/svg" width="510" height="448" viewBox="0 0 510 448">
<g id="icomoon-ignore">
</g>
<path d="M176 224c-53 0-96-43-96-96s43-96 96-96 96 43 96 96-43 96-96 96zM445.25 304l62.25 62.25c1.5 1.5 2.25 3.5 2.25 5.75 0 2-0.75 4-2.25 5.5l-34 34c-1.5 1.5-3.5 2.25-5.5 2.25-2.25 0-4.25-0.75-5.75-2.25l-62.25-62.25-62.25 62.25c-1.5 1.5-3.5 2.25-5.75 2.25-2 0-4-0.75-5.5-2.25l-34-34c-1.5-1.5-2.25-3.5-2.25-5.5 0-2.25 0.75-4.25 2.25-5.75l62.25-62.25-62.25-62.25c-1.5-1.5-2.25-3.5-2.25-5.75 0-2 0.75-4 2.25-5.5l34-34c1.5-1.5 3.5-2.25 5.5-2.25 2.25 0 4.25 0.75 5.75 2.25l62.25 62.25 62.25-62.25c1.5-1.5 3.5-2.25 5.75-2.25 2 0 4 0.75 5.5 2.25l34 34c1.5 1.5 2.25 3.5 2.25 5.5 0 2.25-0.75 4.25-2.25 5.75zM320.75 304l-45.25 45.25c-6 6-9.25 14.25-9.25 22.75 0 8.25 3.25 16.5 9.25 22.5l20.75 20.75c-3.5 0.5-7.25 0.75-11 0.75h-218.5c-40 0-66.75-24-66.75-64.75 0-56.5 13.25-143.25 86.5-143.25 4 0 6.75 1.75 9.75 4.25 24 19 48.5 30.5 79.75 30.5s55.75-11.5 79.75-30.5c3-2.5 5.75-4.25 9.75-4.25 4.75 0 9.5 0.5 14.25 1.5-8.25 8-13.5 14.5-13.5 26.5 0 8.5 3.25 16.75 9.25 22.75z"></path>
</svg>
